<svg width="13" height="12" viewBox="0 0 13 12" fill="none" xmlns="http://www.w3.org/2000/svg">
<path d="M11.187 6.395C11.1083 7.2461 10.7889 8.0572 10.2661 8.73339C9.74328 9.40958 9.03871 9.9229 8.23481 10.2133C7.43092 10.5036 6.56095 10.5591 5.72671 10.373C4.89247 10.187 4.12846 9.76727 3.52408 9.16289C2.91969 8.5585 2.49993 7.79449 2.31392 6.96025C2.1279 6.12601 2.18332 5.25604 2.47369 4.45215C2.76406 3.64825 3.27738 2.94368 3.95357 2.42088C4.62976 1.89807 5.44086 1.57865 6.29196 1.5C5.79367 2.17413 5.55389 3.00472 5.61623 3.84071C5.67857 4.67669 6.03889 5.46253 6.63166 6.0553C7.22443 6.64807 8.01027 7.00839 8.84626 7.07073C9.68224 7.13308 10.4973 7.03615 11.1715 6.53785L11.187 6.395Z" stroke="#374353" stroke-linecap="round" stroke-linejoin="round"/>
</svg>
