<svg width="13" height="13" viewBox="0 0 13 13" fill="none" xmlns="http://www.w3.org/2000/svg">
<g clip-path="url(#clip0_2_733)">
<path d="M6.68694 8.9139C8.06765 8.9139 9.18694 7.79461 9.18694 6.4139C9.18694 5.03318 8.06765 3.91389 6.68694 3.91389C5.30622 3.91389 4.18694 5.03318 4.18694 6.4139C4.18694 7.79461 5.30622 8.9139 6.68694 8.9139Z" stroke="#006FF1" stroke-width="0.916667" stroke-linecap="round" stroke-linejoin="round"/>
<path d="M6.68694 0.913895L6.68694 1.91389" stroke="#006FF1" stroke-width="0.916667" stroke-linecap="round" stroke-linejoin="round"/>
<path d="M6.68694 10.9139L6.68694 11.9139" stroke="#006FF1" stroke-width="0.916667" stroke-linecap="round" stroke-linejoin="round"/>
<path d="M2.79694 2.5239L3.50694 3.2339" stroke="#006FF1" stroke-width="0.916667" stroke-linecap="round" stroke-linejoin="round"/>
<path d="M9.86693 9.59389L10.5769 10.3039" stroke="#006FF1" stroke-width="0.916667" stroke-linecap="round" stroke-linejoin="round"/>
<path d="M1.18694 6.41389L2.18694 6.41389" stroke="#006FF1" stroke-width="0.916667" stroke-linecap="round" stroke-linejoin="round"/>
<path d="M11.1869 6.41389L12.1869 6.41389" stroke="#006FF1" stroke-width="0.916667" stroke-linecap="round" stroke-linejoin="round"/>
<path d="M2.79694 10.3039L3.50694 9.59389" stroke="#006FF1" stroke-width="0.916667" stroke-linecap="round" stroke-linejoin="round"/>
<path d="M9.86693 3.2339L10.5769 2.5239" stroke="#006FF1" stroke-width="0.916667" stroke-linecap="round" stroke-linejoin="round"/>
</g>
<defs>
<clipPath id="clip0_2_733">
<rect width="12" height="12" fill="white" transform="translate(0.686935 0.413895)"/>
</clipPath>
</defs>
</svg>
